<?xml version="1.0" encoding="UTF-8" standalone="no"?>
<!-- Created with Inkscape (http://www.inkscape.org/) -->
<svg id="svg2" xmlns="http://www.w3.org/2000/svg" height="491" width="405" version="1.0">
 <path id="path6094" d="m1.375 1.6875v299.09c0 83.51 89.828 164.77 200.84 188.81 111.01-24.04 200.84-105.3 200.84-188.81v-299.09l-401.68-0.0025z" fill-rule="evenodd" stroke="#000" stroke-width="3" fill="#fff"/>
 <g id="g8066" transform="translate(-1.5781)">
  <path id="path6107" d="m164.72 331.88c-0.9 8.06-3.06 15.96-9.16 23.37-2.34-5.18-8.33-15.78-18.75-15.78-8.77 0-13.84 9.5-13.84 9.5l1.56 2.87s3.13-1.56 6.63-1.56c1.39 0 3.69 1.23 4.93 1.1 2.12 2.86 12.41 13.4 12.41 13.4s-8.29-1.38-17.69-1.4c-11.05-0.04-17.5 10.95-14.5 20.84 2.52-3.84 4.83-6.21 10.47-5.88 6.28-4.58 16.31-5.66 22.41-5.53-0.45 4.51-9.55 9.53-11.66 19.91-1.44 7.11 2.41 13.33 6.97 15.87 0.28-0.06 0.56-0.09 0.84-0.09 0.53 0 1.02-0.04 1.47-0.09 0.4-0.05 0.77-0.11 1.13-0.19l0.15-0.03c-0.25-3.9-0.89-7.5 0.03-12.28 5.54-6.31 7.77-14.92 12.76-20.88 14.4-0.9 20.76 8.45 24.15 9.06-0.14 1.38 7.14 9.13 10.47 12.88-0.73-6.72 0.04-13.44-2.47-20.16l-2.12-0.37c-1.26-4.2-3.96-7.57-12.75-12.94-3.83-1.05-7.07-1.84-10.57-1.56 6.55-7.29 7.48-15.44 10.22-23.32l-13-6.56s-0.05-0.11-0.09-0.18z" fill-rule="evenodd" fill="#d7a235"/>
  <path id="path6109" d="m244.75 337.56l-11.22 7.76 11.85 23.71c-8.99 1.08-19.61-0.42-24.32 8.22-5.73-1.02-1.52 16.72 6.38 19.09-0.19-4.6-0.69-9.56 0.97-10.18 8-8.49 18.41-4.41 25.71-6.44 3.26 6 5.9 12.18 7.5 18.66-1.38 2.17-2.81 4.39-4.28 6.65 0.32-0.02 0.62-0.03 0.94-0.03 0.38 0 0.76 0.03 1.13 0.06 0.36 0.04 0.71 0.09 1.06 0.16 0.23 0.04 0.46 0.1 0.69 0.16 0.02 0 0.04 0.02 0.06 0.03 0.22 0.06 0.44 0.11 0.66 0.18 0.06 0.02 0.12 0.04 0.18 0.07 0.16 0.05 0.32 0.12 0.47 0.18 0.13 0.06 0.25 0.1 0.38 0.16 0.19 0.09 0.37 0.18 0.56 0.28 0.31 0.16 0.64 0.34 0.94 0.53 0.05 0.03 0.1 0.06 0.15 0.1 0.25 0.16 0.49 0.32 0.72 0.5 0.29 0.21 0.55 0.44 0.81 0.68 3.53-1.96 6.11-4.39 8-6.62 2.65-10-5.95-19.59-9.62-27.5 0 0 8.69 5.32 14.75 7 3.18 0.88 8.94 1.5 8.94 1.5 3.3 2.55 5.74 6.16 8.12 9.87 1.91-4.21 3.19-10.08 1.41-14.93-1.03-2.81-4.37-9.69-11.66-11.75-6.13-1.74-12.85-1.75-17.78-1.85 4.36-3.87 8.11-7.59 11.59-12.12 3.6-0.47 5.53-0.46 8.66 0 0 0-2.16-11.31-12.03-11.31-3.78 0-3 2.03-3 2.03-7.45-1.42-10.92 4.98-16.09 14.93l-12.63-19.78z" fill-rule="evenodd" fill="#d7a235"/>
  <path id="path3176" d="m55.531 29c-10.912 0-12.2 10.344-19.906 10.344s-7.752-4.676-11.344-6.782c-2.441 9.323 2.783 19.907 10.375 19.907 8.927 0 9.418-11.969 17.5-11.969 4.939 0 5.33 4.926 7.75 10.406 2.162 4.896 8.462 7.794 14.938 9.188-9.79 8.148-17.711 18.593-23.344 18.594-5.678 0-10.219-7.907-10.219-7.907-2.885 4.348-5.103 17.313 6.5 17.313 6.288 0 12.625-4.063 12.625-4.063-12.992 24.559-21.687 50.899-21.687 75.659 0 9.82-8.961 23.31-19.281 28.15 1.511 4.54 4.864 8.44 10.531 8.44 15.085 0 7.499-30.53 23.781-35.31-3.29 20.22-2.998 40.5-1.438 65.75 1.034 16.72-6.756 29.47-18.312 34.97-4.111 1.95 0.859 8.25 8.75 8.25 17.874 0 21.032-33.43 19.594-58.44l9.562 4.22v76.4c0 23.04-3.513 30.17-15.062 37.6-5.58 2.37 2.765 7.12 11.812 7.12 20.224 0 14.252-42.98 16.688-76.12l10.844 4.69s-0.27 10.25-0.813 18.31c-0.547 8.11 3.731 11.05 6.155 16.53 0 0-3.561 19.89-3.561 43.22 0 18.28-4.982 23.01-12.781 26.56-1.828 0.83-2.825 5.55 10.843 5.66 19.609 0.16 16.029-33.02 16.029-51.81 0-31.85 2.28-75.47 2.28-75.47l10.04 3.56s-0.66 51.13-0.66 71.25c0 4.66-4.87 9.29-9.72 9.09 2.24 3.18 4.42 5.78 9.66 5.78 7.68 0 9.83-7.53 9.78-12.28-0.24-21.12 0.81-71.09 0.81-71.09l12.78 5.69s0.9 7.2 0 13.75c-0.94 6.81-7.75 10.25-7.75 10.25 4.74 9.23 11.75 7.12 13.88 3.56 3.27-5.46 2.31-23.69 2.31-23.69l7.91 3.75s0.68 26.88-0.91 43.03c-1.42 14.48 2.34 21 2.34 21l12.94 6.75c1.52-4.33 4.37-9.09 6.63-14 10.66 11.4 9.55 50.33 11.65 75.69 0.54 6.47-5.51 11-11.15 11-10.09 0-12.25-11.12-22.44-11.12-9.97 0-8.16 8.12-17.1 8.12-5.66 0-8.9 12.49-18.22 13.06 0 0 2.07 3.53 8.82 3.53 12.74 0 16.72-11.56 22.65-11.56 4.84 0 9.28 8.59 21.19 8.59 8.98 0 14.5-4.68 14.5-4.68l0.03 8.78s-23.08 0.09-26.53 1.53c-3.44 1.44-14.9 14.03-14.9 14.03 12.78 1.24 16.78-5.62 22.5-5.62 5.24 0 12.96-0.91 18.62-2.07v6.47c-8.92 4.3-15.9 13.79-22.34 22.6 5.09-0.23 7.86 1.47 20.72-5.19 5.18 3.2 8.53 7.04 9.71 11.65l2.25 0.41c1.64-6.34 4.43-8.54 7.22-10.75 3.56 2.77 13.34 3.24 20.97 4.5-7.58-7.92-9.88-13.58-18.78-18.78l-0.34-5.62c9.21 0.65 10.34 6.93 16.56 6.93 2.52 0 2.55-1.12 5.09-1.12 6.81 0 11.43 4.29 15.41 8.47 5.83-8.14-3.07-16.57-11.31-16.57-3.03 0-6.42 0.79-7.91 0.79-4.99 0-6.61-6.87-16.78-9.63l-0.06-9.81c4.59 1.41 10.02 11.68 20.71 11.68 11.22 0 12.94-9.43 22-9.43 5.89 0 14.22 8.34 14.22 8.34 3.36-9.37-2.35-24.03-13.06-24.03-10.94 0-17.83 10.28-27.06 10.28-6.05 0-13.26-4.43-14.44-8.78-1.49-5.51-2.37-15.36-2.37-35.97 0-20.48 2.05-43.91 6.25-47.84 2.29 8.79 8.27 15.74 13.18 23.22l11-8.44s1.19-10.34 1.19-26.81c0-16.3-4.92-32.73-9.72-38.54 1.69-2.23 3.26-5.43 3.88-8.78 0.81-4.41 0.37-9.45 0.37-16.65l6.47 3.03s-0.87 11.09-0.87 21.69c0 9.2 2.38 19.43 9.15 19.43 4.92 0 7.69-5.18 7.69-5.18-14.32-0.52-11.59-28.04-3.78-28.04 2.86 0.01 4.73 3.72 4.75 6.88 0.04 5.71-0.7 9.07 0.31 14.28 0.63 3.27 3.17 5.98 5.84 6.28-1.48 7.12-1.96 18.11-1.96 27.19 0 10.01 1.25 21.37 11.62 21.37 4.87 0 6.72-2.93 7.81-5.21-3.22 0.04-5.92-2.33-7.12-5.82-4.57-13.31-0.53-27.22 1.31-41.68-3.87-25.07 0.64-32.57 4-37.13-0.44 14.81 3.24 22.25 7 28.28 0 0-0.83 37.04-1 62.82-0.18 27.47 6.27 41 20.75 41 4.37-0.01 7.66-2.22 7.66-2.22-20.2-11.36-18.25-41.88-18.25-64.94 0-14.04-2.5-55.98 7.34-69.06l5.19 1.87c0.07 16.18 0.06 39.49 3.97 58.53 3.22 15.7 9.61 29.66 19.03 29.66 6.06 0 11.05-5.08 12.09-8.97-15.86-1.78-18.16-21.13-18-44.53 0.1-13.33 0.75-28.7 0.75-41.1l7.57 8.1c-0.94 8.39-2.68 40.62 19.15 40.62 5.12 0 8.52-4.25 8.97-9.62-13.47-4.47-13.64-16.81-10.44-28.06-6.57-5.82-8.19-15.85-8.25-24.78-0.08-13.36 0.81-27.05 2.41-40 9.71 0 8.12 27.84 24.62 27.84 7.86 0 11.82-11.16 11.82-11.16-7.42-1.01-13.21-3.05-15.07-8.28-4.01-11.29-3.06-23.4-3.06-36.25 0-4.61-0.33-10.89-3.09-14.78-1.47-9.07-8.66-19.8-15.85-25.06 1.56-6.42 2.66-12.25 1.29-19.128-0.56-2.773-1.33-5.414-2.26-7.937 2 0.532 4.36 0.969 6.79 0.969 17.9 0 12.5-10.834 11.5-10.594-0.58 0.137-6.23 5.813-12.19 5.812-3.38 0-6.42-1.031-8.6-1.937-2.52-4.998-5.75-9.472-9.43-13.531 2.24-3.28 4.94-7.367 7.12-11.125 5.38-9.272 11.82-16.188 15.66-16.188 4.99 0 4.17 2.844 9.03 2.844 9.1 0 8.61-11.094 7.59-12.906-0.98-1.756-3.66 4.937-8.84 4.937-5.21 0-5-5.812-11.84-5.812-4.34 0-9.89 3.913-14.66 18.718-2.06 6.383-5.61 11.786-8.22 15.25-5.83-5.507-12.49-10.181-19.22-14.312-8.52-5.229-18-2.959-18.78 8.906-0.54 8.306 3.67 13.184 7.78 18.125 0.9 7.274 0.99 14.065 0.53 21.219 0 0.031 0.01 0.063 0 0.094v0.031c-1.13 5.055-5.86 11.535-10.93 14.875-3.57 2.35-6.13 1.94-11.29 1.94-17.27 0-20.68 9.27-20.68 18.56 0 11.56 5.39 24.56 9.22 24.56 3.29 0 7.93-6.65 7.93-14.12 0-6.81-5.81-9.5-5.81-14.88 0-5.6 4.21-7.06 9.72-7.06 18.41 0 18.91-10.99 22.81-19.94 18.64 15.87 4.8 41.32-12.37 51.97-11.84 7.35-27.72 10.98-44.85 6.97 1.29-12.47 0.87-24.94 0.47-37.41 1.51-1.64 4.01-2.69 6-2.75 2.89-10.87 0.86-22.907-3.72-29.809 8.81-4.892 8.42-14.598 21.22-14.906-10.19-12.35-24.89-8.815-34.34-20.063 4.57-2.787 8.5-5.912 11.34-9.562-14.97 0.159-15.18-11.5-37.09-11.5-15.8 0-28.93 13.028-36.41 24.344-5.34 0.014-15.15 2.137-22.28 7.312-5.59 4.057-10.5 11.594-10.5 20.313 0 7.699 7.43 13.374 17.53 13.531 0 0 0.19-8.929 6.31-12.594 6.13-3.664 15.44-0.687 15.44-0.687s5.84-5.281 11.69-5.281c5.45 0 9.28 3.137 9.28 7.437 0 3.864-6.33 6.687-12.81 6.687-6.18 0-11.34 1.533-15.94 4.094-7.61 4.234-7.56 11.564-7.56 11.564 3.91-3.04 8.74-7.22 22-7.22 8.02 0 15.44-2.29 20.53-6.188 0.2 1.053 0.31 2.062 0.31 2.938 0 7.32-2.48 10.2-14.44 13.91 2.22 2.45 6.16 2.7 6.16 6.65 0 4.08-14.42 15.3-23.16 21.03 3.78 10.05 4.56 23.5-19.09 23.5-12.65 0-34.45-7.78-48.84-15.81-14.744-8.23-20.971-16.39-20.971-30.19 0-8.22 2.538-17.66 13.941-24.778 0.56-0.352 1.07-0.82 1.53-1.343 5.82 10.311 8.76 23.671 19.93 23.721 11.39 0.05 18.47 10.62 17.16 22.97 5.66-2.48 9.91-9.9 9.91-19.97 0-7.57-5.44-11.13-12.91-11.13-5.79 0-6.75 1.41-13.09 1.41-8.01 0-13.83-11.592-19.19-19.939 2.18-5.07 2.27-12.903 1.34-19.187-0.91-6.201 1.1-9.02 6.32-12.313 4.88-3.085 5.39-12.469-4.69-12.469-7.82 0-17.807 3.394-25.751 7.626-2.055 1.094-4.044 2.406-5.969 3.843-2.72-0.664-6.448-1.917-9.25-4.187-5.673-4.595-4.406-8.675-4.406-13.906 0-5.238-3.342-10.688-8.563-10.688z" fill-rule="evenodd" fill="#f00"/>
  <path id="path4130" d="m52.656 100.12c-4.153 9.57-7.539 19.29-9.937 28.97 24.445 25.57 58.621 56.38 125.53 52.16-61.13-8.82-93.094-33.68-115.59-81.13z" fill-rule="evenodd" fill="#d7a235"/>
  <path id="path4132" d="m351.53 111.81c-21.93 38.72-51.71 61.49-106.78 69.44 62.56 3.94 97.63-19.52 122.09-42.91-1.61-8.98-8.67-19.47-15.75-24.65 0.16-0.63 0.3-1.25 0.44-1.88z" fill-rule="evenodd" fill="#d7a235"/>
  <path id="path3159" d="m167 99.875c1.3-7.422 9.4-12 22.5-12 10.56 0 18.12 0.5 18.12 0.5l-14.12 10s-4.11-5.25-10.75-5.25c-10.55 0-10.89 5.813-15.75 6.75z" fill-rule="evenodd" stroke="#000" stroke-width="1px"/>
  <path id="path5109" d="m184.62 66.75c1.75-2.385 4.44-5.094 7.59-6.319 1.43-0.554 3.23-0.565 4.55-0.531s2.17 0.599 3.21 0.924c0.67 0.209 1.35 0.77 1.05 1.49-0.31 0.746-0.9 1.457-1.78 1.503-1.37 0.071-2.88-0.444-4.12 0.357-1.08 0.692-1.48 2.85-1.36 4.461-2.61 1.845-6.46 0.329-9.14-1.885z" fill-rule="evenodd" stroke="#000" stroke-width="0.3"/>
  <path id="path2183" d="m175.66 58.387c-5.33 0-15.22 2.072-22.38 7.266-5.59 4.056-10.49 11.612-10.49 20.331 0 7.699 7.42 13.355 17.52 13.512 0 0 0.17-8.932 6.3-12.596s15.46-0.687 15.46-0.687 5.83-5.268 11.68-5.268c5.45 0 9.27 3.143 9.27 7.444 0 3.863-6.33 6.665-12.81 6.665-6.19 0-11.32 1.537-15.93 4.098-7.61 4.238-7.56 11.568-7.56 11.568 3.92-3.04 8.73-7.22 21.99-7.22 14.81 0 27.48-7.89 27.48-19.005 0-9.631-9.93-16.833-22.21-16.833-9.2 0-18.32-9.275-18.32-9.275z" fill-rule="evenodd" fill="#d7a235"/>
  <path id="path8040" d="m141 340.25c-2.66 2.48-4.67 7.44-4.88 11.25" stroke="#000" stroke-width="1px" fill="none"/>
  <path id="path8042" d="m124.62 364.75c-1.74 3.29-1.86 9.24 1.76 13.5" stroke="#000" stroke-width="1px" fill="none"/>
  <path id="path2169" d="m185 384.25c3.05-0.96 5.19-3.45 6.25-7.75" stroke="#000" stroke-width="1px" fill="none"/>
  <path id="path2171" d="m137.25 393.62c4.55-1.01 7.73 0.43 10.63 2.38" stroke="#000" stroke-width="1px" fill="none"/>
  <path id="path2197" d="m220.97 377.51c3.12 2.16 5.36 5.5 7.07 9.55" stroke="#000" stroke-width="1px" fill="none"/>
  <path id="path2199" d="m273.65 342.33l6.19 9.55" stroke="#000" stroke-width="1px" fill="none"/>
  <path id="path2201" d="m297.69 377.86c-3.81-0.94-7.49 0.52-8.31 5.13" stroke="#000" stroke-width="1px" fill="none"/>
  <path id="path2203" d="m273.65 401.73c-2.88-1.54-4.83-3.35-12.2-3.54" stroke="#000" stroke-width="1px" fill="none"/>
  <path id="path2195" d="m55.531 29c-10.912 0-12.2 10.344-19.906 10.344s-7.752-4.676-11.344-6.782c-2.441 9.323 2.783 19.907 10.375 19.907 8.927 0 9.418-11.969 17.5-11.969 4.939 0 5.33 4.926 7.75 10.406 2.162 4.896 8.462 7.794 14.938 9.188-9.79 8.148-17.711 18.593-23.344 18.594-5.678 0-10.219-7.907-10.219-7.907-2.885 4.348-5.103 17.313 6.5 17.313 6.288 0 12.625-4.063 12.625-4.063-12.992 24.559-21.687 50.899-21.687 75.659 0 9.82-8.961 23.31-19.281 28.15 1.511 4.54 4.864 8.44 10.531 8.44 15.085 0 7.499-30.53 23.781-35.31-3.29 20.22-2.998 40.5-1.438 65.75 1.034 16.72-6.756 29.47-18.312 34.97-4.111 1.95 0.859 8.25 8.75 8.25 17.874 0 21.032-33.43 19.594-58.44l9.562 4.22v76.4c0 23.04-3.513 30.17-15.062 37.6-5.58 2.37 2.765 7.12 11.812 7.12 20.224 0 14.252-42.98 16.688-76.12l10.844 4.69s-0.27 10.25-0.813 18.31c-0.547 8.11 3.731 11.05 6.155 16.53 0 0-3.561 19.89-3.561 43.22 0 18.28-4.982 23.01-12.781 26.56-1.828 0.83-2.825 5.55 10.843 5.66 19.609 0.16 16.029-33.02 16.029-51.81 0-31.85 2.28-75.47 2.28-75.47l10.04 3.56s-0.66 51.13-0.66 71.25c0 4.66-4.87 9.29-9.72 9.09 2.24 3.18 4.42 5.78 9.66 5.78 7.68 0 9.83-7.53 9.78-12.28-0.24-21.12 0.81-71.09 0.81-71.09l12.78 5.69s0.9 7.2 0 13.75c-0.94 6.81-7.75 10.25-7.75 10.25 4.74 9.23 11.75 7.12 13.88 3.56 3.27-5.46 2.31-23.69 2.31-23.69l7.91 3.75s0.68 26.88-0.91 43.03c-1.32 13.39 1.77 19.9 2.25 20.82-0.9 8.06-3.06 15.96-9.16 23.37-2.34-5.18-8.33-15.78-18.75-15.78-8.77 0-13.84 9.5-13.84 9.5l1.56 2.87s3.13-1.56 6.63-1.56c1.39 0 3.69 1.23 4.93 1.1 2.12 2.86 12.41 13.4 12.41 13.4s-8.29-1.38-17.69-1.4c-11.05-0.04-17.5 10.95-14.5 20.84 2.52-3.84 4.83-6.21 10.47-5.88 6.28-4.58 16.31-5.66 22.41-5.53-0.45 4.51-9.55 9.53-11.66 19.91-1.44 7.11 2.41 13.33 6.97 15.87-5.17 1.15-8.53 12.43-17.38 12.97 0 0 2.07 3.53 8.82 3.53 12.74 0 16.72-11.56 22.65-11.56 4.84 0 9.28 8.59 21.19 8.59 8.98 0 14.5-4.68 14.5-4.68l0.03 8.78s-23.08 0.09-26.53 1.53c-3.44 1.44-14.9 14.03-14.9 14.03 12.78 1.24 16.78-5.62 22.5-5.62 5.24 0 12.96-0.91 18.62-2.07v6.47c-8.92 4.3-15.9 13.79-22.34 22.6 5.09-0.23 7.86 1.47 20.72-5.19 5.18 3.2 8.53 7.04 9.71 11.65l2.25 0.41c1.64-6.34 4.43-8.54 7.22-10.75 3.56 2.77 13.34 3.24 20.97 4.5-7.58-7.92-9.88-13.58-18.78-18.78l-0.34-5.62c9.21 0.65 10.34 6.93 16.56 6.93 2.52 0 2.55-1.12 5.09-1.12 6.81 0 11.43 4.29 15.41 8.47 5.83-8.14-3.07-16.57-11.31-16.57-3.03 0-6.42 0.79-7.91 0.79-4.99 0-6.61-6.87-16.78-9.63l-0.06-9.81c4.59 1.41 10.02 11.68 20.71 11.68 11.22 0 12.94-9.43 22-9.43 5.89 0 14.22 8.34 14.22 8.34 2.41-6.71 0.15-16.12-5.25-20.94 3.53-1.96 6.11-4.39 8-6.62 2.65-10-5.95-19.59-9.62-27.5 0 0 8.69 5.32 14.75 7 3.18 0.88 8.94 1.5 8.94 1.5 3.3 2.55 5.74 6.16 8.12 9.87 1.91-4.21 3.19-10.08 1.41-14.93-1.03-2.81-4.37-9.69-11.66-11.75-6.13-1.74-12.85-1.75-17.78-1.85 4.36-3.87 8.11-7.59 11.59-12.12 3.6-0.47 5.53-0.46 8.66 0 0 0-2.16-11.31-12.03-11.31-3.78 0-3 2.03-3 2.03-7.45-1.42-10.92 4.98-16.09 14.93l-12.54-19.87s1.19-10.34 1.19-26.81c0-16.3-4.92-32.73-9.72-38.54 1.69-2.23 3.26-5.43 3.88-8.78 0.81-4.41 0.37-9.45 0.37-16.65l6.47 3.03s-0.87 11.09-0.87 21.69c0 9.2 2.38 19.43 9.15 19.43 4.92 0 7.69-5.18 7.69-5.18-14.32-0.52-11.59-28.04-3.78-28.04 2.86 0.01 4.73 3.72 4.75 6.88 0.04 5.71-0.7 9.07 0.31 14.28 0.63 3.27 3.17 5.98 5.84 6.28-1.48 7.12-1.96 18.11-1.96 27.19 0 10.01 1.25 21.37 11.62 21.37 4.87 0 6.72-2.93 7.81-5.21-3.22 0.04-5.92-2.33-7.12-5.82-4.57-13.31-0.53-27.22 1.31-41.68-3.87-25.07 0.64-32.57 4-37.13-0.44 14.81 3.24 22.25 7 28.28 0 0-0.83 37.04-1 62.82-0.18 27.47 6.27 41 20.75 41 4.37-0.01 7.66-2.22 7.66-2.22-20.2-11.36-18.25-41.88-18.25-64.94 0-14.04-2.5-55.98 7.34-69.06l5.19 1.87c0.07 16.18 0.06 39.49 3.97 58.53 3.22 15.7 9.61 29.66 19.03 29.66 6.06 0 11.05-5.08 12.09-8.97-15.86-1.78-18.16-21.13-18-44.53 0.1-13.33 0.75-28.7 0.75-41.1l7.57 8.1c-0.94 8.39-2.68 40.62 19.15 40.62 5.12 0 8.52-4.25 8.97-9.62-13.47-4.47-13.64-16.81-10.44-28.06-6.57-5.82-8.19-15.85-8.25-24.78-0.08-13.36 0.81-27.05 2.41-40 9.71 0 8.12 27.84 24.62 27.84 7.86 0 11.82-11.16 11.82-11.16-7.42-1.01-13.21-3.05-15.07-8.28-4.01-11.29-3.06-23.4-3.06-36.25 0-4.61-0.33-10.89-3.09-14.78-1.47-9.07-8.66-19.8-15.85-25.06 1.56-6.42 2.66-12.25 1.29-19.128-0.56-2.773-1.33-5.414-2.26-7.937 2 0.532 4.36 0.969 6.79 0.969 17.9 0 12.5-10.834 11.5-10.594-0.58 0.137-6.23 5.813-12.19 5.812-3.38 0-6.42-1.031-8.6-1.937-2.52-4.998-5.75-9.472-9.43-13.531 2.24-3.28 4.94-7.367 7.12-11.125 5.38-9.272 11.82-16.188 15.66-16.188 4.99 0 4.17 2.844 9.03 2.844 9.1 0 8.61-11.094 7.59-12.906-0.98-1.756-3.66 4.937-8.84 4.937-5.21 0-5-5.812-11.84-5.812-4.34 0-9.89 3.913-14.66 18.718-2.06 6.383-5.61 11.786-8.22 15.25-5.83-5.507-12.49-10.181-19.22-14.312-8.52-5.229-18-2.959-18.78 8.906-0.54 8.306 3.67 13.184 7.78 18.125 0.9 7.274 0.99 14.065 0.53 21.219 0 0.031 0.01 0.063 0 0.094v0.031c-1.13 5.055-5.86 11.535-10.93 14.875-3.57 2.35-6.13 1.94-11.29 1.94-17.27 0-20.68 9.27-20.68 18.56 0 11.56 5.39 24.56 9.22 24.56 3.29 0 7.93-6.65 7.93-14.12 0-6.81-5.81-9.5-5.81-14.88 0-5.6 4.21-7.06 9.72-7.06 18.41 0 18.91-10.99 22.81-19.94 18.64 15.87 4.8 41.32-12.37 51.97-11.84 7.35-27.72 10.98-44.85 6.97 1.29-12.47 0.87-24.94 0.47-37.41 1.51-1.64 4.01-2.69 6-2.75 2.89-10.87 0.86-22.907-3.72-29.809 8.81-4.892 8.42-14.598 21.22-14.906-10.19-12.35-24.89-8.815-34.34-20.063 4.57-2.787 8.5-5.912 11.34-9.562-14.97 0.159-15.18-11.5-37.09-11.5-15.8 0-28.93 13.028-36.41 24.344-5.34 0.014-15.15 2.137-22.28 7.312-5.59 4.057-10.5 11.594-10.5 20.313 0 7.699 7.43 13.374 17.53 13.531 0 0 0.19-8.929 6.31-12.594 6.13-3.664 15.44-0.687 15.44-0.687s5.84-5.281 11.69-5.281c5.45 0 9.28 3.137 9.28 7.437 0 3.864-6.33 6.687-12.81 6.687-6.18 0-11.34 1.533-15.94 4.094-7.61 4.234-7.56 11.564-7.56 11.564 3.91-3.04 8.74-7.22 22-7.22 8.02 0 15.44-2.29 20.53-6.188 0.2 1.053 0.31 2.062 0.31 2.938 0 7.32-2.48 10.2-14.44 13.91 2.22 2.45 6.16 2.7 6.16 6.65 0 4.08-14.42 15.3-23.16 21.03 3.78 10.05 4.56 23.5-19.09 23.5-12.65 0-34.45-7.78-48.84-15.81-14.744-8.23-20.971-16.39-20.971-30.19 0-8.22 2.538-17.66 13.941-24.778 0.56-0.352 1.07-0.82 1.53-1.343 5.82 10.311 8.76 23.671 19.93 23.721 11.39 0.05 18.47 10.62 17.16 22.97 5.66-2.48 9.91-9.9 9.91-19.97 0-7.57-5.44-11.13-12.91-11.13-5.79 0-6.75 1.41-13.09 1.41-8.01 0-13.83-11.592-19.19-19.939 2.18-5.07 2.27-12.903 1.34-19.187-0.91-6.201 1.1-9.02 6.32-12.313 4.88-3.085 5.39-12.469-4.69-12.469-7.82 0-17.807 3.394-25.751 7.626-2.055 1.094-4.044 2.406-5.969 3.843-2.72-0.664-6.448-1.917-9.25-4.187-5.673-4.595-4.406-8.675-4.406-13.906 0-5.238-3.342-10.688-8.563-10.688zm165.13 293.69c2.29 8.79 8.27 15.74 13.18 23.22l11.54 23.12c-8.99 1.08-19.61-0.42-24.32 8.22-5.73-1.02-1.52 16.72 6.38 19.09-0.19-4.6-0.69-9.56 0.97-10.18 8-8.49 18.41-4.41 25.71-6.44 3.26 6 5.9 12.18 7.5 18.66-1.38 2.17-2.81 4.39-4.28 6.65-10.39 0.57-17.16 10.25-26.12 10.25-6.05 0-13.26-4.43-14.44-8.78-1.49-5.51-2.37-15.36-2.37-35.97 0-20.48 2.05-43.91 6.25-47.84zm-36.28 2.12c10.66 11.4 9.55 50.33 11.65 75.69 0.54 6.47-5.51 11-11.15 11-10.09 0-12.25-11.12-22.44-11.12-8.8 0-8.42 6.32-14.35 7.81-0.25-3.9-0.89-7.5 0.03-12.28 5.54-6.31 7.77-14.92 12.76-20.88 14.4-0.9 20.76 8.45 24.15 9.06-0.14 1.38 7.14 9.13 10.47 12.88-0.73-6.72 0.04-13.44-2.47-20.16l-2.12-0.37c-1.26-4.2-3.96-7.57-12.75-12.94-3.83-1.05-7.07-1.84-10.57-1.56 6.55-7.29 7.48-15.09 10.22-22.97 1.26-4.24 4.41-9.69 6.57-14.16z" stroke="#000" stroke-width="1px" fill="none"/>
  <path id="path8062" d="m148.01 408.23c-1.33 0.44-2.11-0.13-3.54 0.43" stroke="#000" stroke-width="1px" fill="none"/>
  <path id="path8064" d="m257.33 405.01c2.68-0.09 5.44-0.01 8.96 3.27" stroke="#000" stroke-width="1px" fill="none"/>
 </g>
</svg>
